<?xml version="1.0" standalone="no"?><!DOCTYPE svg PUBLIC "-//W3C//DTD SVG 1.1//EN" "http://www.w3.org/Graphics/SVG/1.1/DTD/svg11.dtd"><svg t="1557909484962" class="icon" style="" viewBox="0 0 1024 1024" version="1.1" xmlns="http://www.w3.org/2000/svg" p-id="4836" xmlns:xlink="http://www.w3.org/1999/xlink" width="32" height="32"><defs><style type="text/css"></style></defs><path d="M219.426286 768.015999q0-14.847072-10.847322-25.726392t-25.726392-10.847322-25.726392 10.847322-10.847322 25.726392 10.847322 25.726392 25.726392 10.847322 25.726392-10.847322 10.847322-25.726392zM877.689144 438.88457q0-29.150178-22.270608-51.132804t-50.844822-22.014624l-201.139429 0q0-33.149928 27.422286-91.130304t27.422286-91.706268q0-55.9965-18.270858-82.842822t-73.147428-26.846322q-14.847072 14.847072-21.726642 48.572964t-17.43891 71.707518-34.013874 62.55609q-12.575214 13.151178-43.99725 51.99675-2.271858 2.847822-13.151178 17.150928t-18.014874 23.422536-19.710768 24.286482-22.846572 25.150428-22.014624 20.286732-22.846572 15.423036-20.286732 5.151678l-18.270858 0 0 365.705143 18.270858 0q7.423536 0 18.014874 1.727892t18.846822 3.711768 21.726642 6.271608 19.99875 6.55959 20.286732 7.135554 16.574964 6.015624q120.568464 41.725392 195.411787 41.725392l69.147678 0q109.721142 0 109.721142-95.418036 0-14.847072-2.847822-31.998 17.150928-9.151428 27.134304-30.014124t10.015374-42.013374-10.271358-39.421536q30.270108-28.574214 30.270108-67.99575 0-14.271108-5.727642-31.710018t-14.271108-27.134304q18.270858-0.575964 30.55809-26.846322t12.287232-46.269108zM950.836573 438.308606q0 50.844822-27.99825 93.146178 5.151678 18.846822 5.151678 39.421536 0 43.99725-21.726642 82.266858 1.727892 11.99925 1.727892 24.574464 0 57.724392-34.269858 101.721642 0.575964 79.419036-48.572964 125.43216t-129.719893 46.013124l-73.723392 0q-54.844572 0-108.281232-12.863196t-123.704268-37.43766q-66.267858-22.846572-78.843072-22.846572l-164.565715 0q-30.270108 0-51.708768-21.43866t-21.43866-51.708768l0-365.705143q0-30.270108 21.43866-51.708768t51.708768-21.43866l156.566215 0q20.574714-13.727142 78.267108-88.570464 33.149928-42.845322 61.148178-73.147428 13.727142-14.271108 20.286732-48.860946t17.43891-72.283482 35.421786-61.724142q22.270608-21.150678 51.420786-21.150678 47.997 0 86.266608 18.55884t58.268358 58.012374 19.99875 106.265358q0 53.148678-27.422286 109.721142l100.569714 0q59.420286 0 102.841572 43.421286t43.421286 102.265608z" p-id="4837"></path></svg>